{"title":"Seven Samurai [1954] BRRip XviD - CODY","uid":7503051,"size":2235522432,"categoryP":"video","categoryS":"movies","magnet":"?xt=urn:btih:d7ad7e62f3df6f8d4a2d4fa2d7296af84b758b92&amp;dn=Seven+Samurai+%5B1954%5D+BRRip+XviD+-+CODY&amp;tr=udp%3A%2F%2Ftracker.openbittorrent.com%3A80&amp;tr=udp%3A%2F%2Fopen.demonii.com%3A1337&amp;tr=udp%3A%2F%2Ftracker.coppersurfer.tk%3A6969&amp;tr=udp%3A%2F%2Fexodus.desync.com%3A6969","seeders":1,"leechers":0,"uploader":"CODYBOSS1969","files":16,"time":1344039817,"description":"General\nComplete name                            : Seven Samurai [1954] BRRip XviD - CODY.avi\nFormat                                   : AVI\nFormat/Info                              : Audio Video Interleave\nFormat profile                           : OpenDML\nFile size                                : 2.08 GiB\nDuration                                 : 3h 26mn\nOverall bit rate                         : 1 439 Kbps\nWriting application                      : VirtualDubMod 1.5.10.3 | www.virtualdub-fr.org || (build 2550/release)\nWriting library                          : VirtualDubMod build 2550/release\n\nVideo\nID                                       : 0\nFormat                                   : MPEG-4 Visual\nFormat profile                           : Advanced Simple@L5\nFormat settings, BVOP                    : 4\nFormat settings, QPel                    : No\nFormat settings, GMC                     : No warppoints\nFormat settings, Matrix                  : Default (H.263)\nCodec ID                                 : XVID\nCodec ID/Hint                            : XviD\nDuration                                 : 3h 26mn\nBit rate                                 : 1 299 Kbps\nWidth                                    : 720 pixels\nHeight                                   : 536 pixels\nDisplay aspect ratio                     : 4:3\nFrame rate                               : 23.976 fps\nColor space                              : YUV\nChroma subsampling                       : 4:2:0\nBit depth                                : 8 bits\nScan type                                : Progressive\nCompression mode                         : Lossy\nBits/(Pixel*Frame)                       : 0.140\nStream size                              : 1.88 GiB (90%)\nWriting library                          : XviD 65\n\nAudio\nID                                       : 1\nFormat                                   : MPEG Audio\nFormat version                           : Version 1\nFormat profile                           : Layer 3\nCodec ID                                 : 55\nCodec ID/Hint                            : MP3\nDuration                                 : 3h 26mn\nBit rate mode                            : Constant\nBit rate                                 : 128 Kbps\nChannel(s)                               : 2 channels\nSampling rate                            : 48.0 KHz\nCompression mode                         : Lossy\nStream size                              : 189 MiB (9%)\nAlignment                                : Aligned on interleaves\nInterleave, duration                     : 42 ms (1.00 video frame)\nInterleave, preload duration             : 504 ms\nWriting library                          : LAME3.99r\nEncoding settings                        : -m s -V 4 -q 2 -lowpass 17 -b 128\n\n\nIMDB link:                                &lt;a href=&quot; http://www.imdb.com/title/tt0047478/&quot; rel=&quot;nofollow&quot; target=&quot;_NEW&quot;&gt; http://www.imdb.com/title/tt0047478/&lt;/a&gt;\n\n\nSubtitles included                       : Arabic, Dutch, English, French,\n                                           German, Hebrew, Romanian, Spanish,\n                                           Portuguese, Portuguese-Brazilian,\n                                           Turkish, Vietnamese\n\n\nPlease seed at least 1,5:1. This way this torrent has a chance to survive!\n\n\nThanks. Enjoy! \t\t\n","torrent":{"xt":"urn:btih:d7ad7e62f3df6f8d4a2d4fa2d7296af84b758b92","amp;dn":"Seven+Samurai+%5B1954%5D+BRRip+XviD+-+CODY","amp;tr":["udp%3A%2F%2Ftracker.openbittorrent.com%3A80","udp%3A%2F%2Fopen.demonii.com%3A1337","udp%3A%2F%2Ftracker.coppersurfer.tk%3A6969","udp%3A%2F%2Fexodus.desync.com%3A6969"],"infoHash":"d7ad7e62f3df6f8d4a2d4fa2d7296af84b758b92","infoHashBuffer":{"type":"Buffer","data":[215,173,126,98,243,223,111,141,74,45,79,162,215,41,106,248,75,117,139,146]},"announce":[],"urlList":[]}}